<?xml version="1.0" standalone="no"?>
<!DOCTYPE svg PUBLIC "-//W3C//DTD SVG 20010904//EN"
 "http://www.w3.org/TR/2001/REC-SVG-20010904/DTD/svg10.dtd">
<svg version="1.0" xmlns="http://www.w3.org/2000/svg"
 width="700.000000pt" height="700.000000pt" viewBox="0 0 700.000000 700.000000"
 preserveAspectRatio="xMidYMid meet">
<metadata>
Created by potrace 1.14, written by Peter Selinger 2001-2017
</metadata>
<g transform="translate(0.000000,700.000000) scale(0.100000,-0.100000)"
fill="#000000" stroke="none">
<path d="M3422 6977 c-40 -22 -55 -36 -108 -102 -21 -27 -44 -54 -50 -60 -23
-21 -156 -208 -229 -321 -43 -66 -86 -131 -96 -146 -10 -15 -19 -30 -19 -33 0
-3 -11 -22 -23 -43 -159 -252 -369 -737 -491 -1132 -56 -181 -139 -528 -160
-670 -3 -19 -8 -45 -10 -56 -10 -47 -34 -207 -41 -274 -3 -30 -8 -71 -10 -90
-29 -245 -38 -477 -39 -1077 -1 -450 -3 -524 -16 -537 -8 -7 -54 -40 -101 -72
-112 -76 -162 -117 -227 -184 -159 -163 -261 -362 -309 -600 -13 -65 -16 -198
-17 -703 -1 -647 -3 -634 67 -691 34 -27 46 -31 101 -31 l63 0 204 135 c112
74 206 137 209 140 14 15 208 135 259 160 158 79 239 92 553 95 l237 1 3 -286
3 -287 28 -37 c53 -69 59 -71 284 -74 193 -3 205 -2 247 19 32 15 51 35 69 68
25 46 25 48 26 301 0 140 0 264 0 276 1 20 4 21 244 19 273 -3 315 -8 444 -50
91 -31 181 -83 472 -277 l304 -203 63 0 c54 0 67 4 101 31 69 55 68 48 67 694
-1 602 -3 648 -34 770 -76 298 -235 520 -500 701 -58 39 -112 78 -120 86 -13
12 -15 87 -16 541 -1 464 -7 747 -18 862 -2 19 -7 69 -10 110 -9 98 -15 157
-21 200 -3 19 -8 53 -11 75 -7 51 -32 214 -38 240 -2 11 -7 40 -11 65 -19 118
-104 475 -139 585 -2 6 -5 17 -8 25 -3 8 -25 76 -49 150 -95 296 -261 682
-398 923 -51 89 -60 105 -91 157 -125 206 -318 476 -402 562 -68 69 -158 87
-236 45z m247 -1988 c112 -36 175 -74 249 -149 78 -80 125 -165 160 -290 17
-61 8 -247 -15 -300 -3 -8 -7 -17 -7 -20 -1 -3 -16 -37 -35 -75 -40 -81 -148
-196 -223 -237 -211 -116 -443 -106 -634 28 -120 84 -198 196 -234 340 -34
132 -20 272 41 398 87 180 234 284 464 329 44 9 174 -4 234 -24z"/>
</g>
</svg>
